<?xml version="1.0" encoding="UTF-8" standalone="no"?>
<!DOCTYPE svg PUBLIC "-//W3C//DTD SVG 1.1//EN"
 "http://www.w3.org/Graphics/SVG/1.1/DTD/svg11.dtd">
<!-- Generated by graphviz version 2.26.3 (20100126.1600)
 -->
<!-- Title: controllers_diagram Pages: 1 -->
<svg width="650pt" height="555pt"
 viewBox="0.00 0.00 650.00 554.83" xmlns="http://www.w3.org/2000/svg" xmlns:xlink="http://www.w3.org/1999/xlink">
<g id="graph1" class="graph" transform="scale(1 1) rotate(0) translate(4 550.83)">
<title>controllers_diagram</title>
<polygon fill="white" stroke="white" points="-4,5 -4,-550.83 647,-550.83 647,5 -4,5"/>
<!-- _diagram_info -->
<g id="node1" class="node"><title>_diagram_info</title>
<text text-anchor="start" x="399" y="-156.3" font-family="Times Roman,serif" font-size="13.00">Controllers diagram</text>
<text text-anchor="start" x="399" y="-139.3" font-family="Times Roman,serif" font-size="13.00">Date: Jan 15 2014 &#45; 22:31</text>
<text text-anchor="start" x="399" y="-122.3" font-family="Times Roman,serif" font-size="13.00">Migration version: 20140115140458</text>
<text text-anchor="start" x="399" y="-105.3" font-family="Times Roman,serif" font-size="13.00">Generated by RailRoady 1.1.1</text>
<text text-anchor="start" x="399" y="-88.3" font-family="Times Roman,serif" font-size="13.00">http://railroady.prestonlee.com</text>
</g>
<!-- HomeController -->
<g id="node2" class="node"><title>HomeController</title>
<polyline fill="none" stroke="black" points="13,-144.286 114,-144.286 "/>
<path fill="none" stroke="black" d="M114,-144.286C120,-144.286 126,-150.286 126,-156.286"/>
<polyline fill="none" stroke="black" points="126,-156.286 126,-234.286 "/>
<path fill="none" stroke="black" d="M126,-234.286C126,-240.286 120,-246.286 114,-246.286"/>
<polyline fill="none" stroke="black" points="114,-246.286 13,-246.286 "/>
<path fill="none" stroke="black" d="M13,-246.286C7,-246.286 1,-240.286 1,-234.286"/>
<polyline fill="none" stroke="black" points="1,-234.286 1,-156.286 "/>
<path fill="none" stroke="black" d="M1,-156.286C1,-150.286 7,-144.286 13,-144.286"/>
<text text-anchor="middle" x="63.5" y="-229.686" font-family="Times Roman,serif" font-size="14.00">HomeController</text>
<polyline fill="none" stroke="black" points="1,-220.286 126,-220.286 "/>
<text text-anchor="start" x="9" y="-203.686" font-family="Times Roman,serif" font-size="14.00">index</text>
<polyline fill="none" stroke="black" points="1,-194.286 126,-194.286 "/>
<polyline fill="none" stroke="black" points="1,-170.286 126,-170.286 "/>
<text text-anchor="start" x="9" y="-153.686" font-family="Times Roman,serif" font-size="14.00">_layout</text>
</g>
<!-- ApplicationController -->
<g id="node3" class="node"><title>ApplicationController</title>
<polyline fill="none" stroke="black" points="232.713,-320.83 383.713,-320.83 "/>
<path fill="none" stroke="black" d="M383.713,-320.83C389.713,-320.83 395.713,-326.83 395.713,-332.83"/>
<polyline fill="none" stroke="black" points="395.713,-332.83 395.713,-428.83 "/>
<path fill="none" stroke="black" d="M395.713,-428.83C395.713,-434.83 389.713,-440.83 383.713,-440.83"/>
<polyline fill="none" stroke="black" points="383.713,-440.83 232.713,-440.83 "/>
<path fill="none" stroke="black" d="M232.713,-440.83C226.713,-440.83 220.713,-434.83 220.713,-428.83"/>
<polyline fill="none" stroke="black" points="220.713,-428.83 220.713,-332.83 "/>
<path fill="none" stroke="black" d="M220.713,-332.83C220.713,-326.83 226.713,-320.83 232.713,-320.83"/>
<text text-anchor="middle" x="308.213" y="-424.23" font-family="Times Roman,serif" font-size="14.00">ApplicationController</text>
<polyline fill="none" stroke="black" points="220.713,-414.83 395.713,-414.83 "/>
<text text-anchor="start" x="228.713" y="-398.23" font-family="Times Roman,serif" font-size="14.00">after_sign_in_path_for</text>
<text text-anchor="start" x="228.713" y="-380.23" font-family="Times Roman,serif" font-size="14.00">after_sign_up_path_for</text>
<polyline fill="none" stroke="black" points="220.713,-370.83 395.713,-370.83 "/>
<polyline fill="none" stroke="black" points="220.713,-346.83 395.713,-346.83 "/>
<text text-anchor="start" x="228.713" y="-330.23" font-family="Times Roman,serif" font-size="14.00">_layout</text>
</g>
<!-- ApplicationController&#45;&gt;HomeController -->
<g id="edge2" class="edge"><title>ApplicationController&#45;&gt;HomeController</title>
<path fill="none" stroke="black" d="M228.762,-320.589C195.547,-295.405 157.501,-266.559 126.294,-242.897"/>
</g>
<!-- ProductsController -->
<g id="node4" class="node"><title>ProductsController</title>
<polyline fill="none" stroke="black" points="207.724,-1.5 329.724,-1.5 "/>
<path fill="none" stroke="black" d="M329.724,-1.5C335.724,-1.5 341.724,-7.5 341.724,-13.5"/>
<polyline fill="none" stroke="black" points="341.724,-13.5 341.724,-235.5 "/>
<path fill="none" stroke="black" d="M341.724,-235.5C341.724,-241.5 335.724,-247.5 329.724,-247.5"/>
<polyline fill="none" stroke="black" points="329.724,-247.5 207.724,-247.5 "/>
<path fill="none" stroke="black" d="M207.724,-247.5C201.724,-247.5 195.724,-241.5 195.724,-235.5"/>
<polyline fill="none" stroke="black" points="195.724,-235.5 195.724,-13.5 "/>
<path fill="none" stroke="black" d="M195.724,-13.5C195.724,-7.5 201.724,-1.5 207.724,-1.5"/>
<text text-anchor="middle" x="268.724" y="-230.9" font-family="Times Roman,serif" font-size="14.00">ProductsController</text>
<polyline fill="none" stroke="black" points="195.724,-221.5 341.724,-221.5 "/>
<text text-anchor="start" x="203.724" y="-204.9" font-family="Times Roman,serif" font-size="14.00">create</text>
<text text-anchor="start" x="203.724" y="-186.9" font-family="Times Roman,serif" font-size="14.00">destroy</text>
<text text-anchor="start" x="203.724" y="-168.9" font-family="Times Roman,serif" font-size="14.00">edit</text>
<text text-anchor="start" x="203.724" y="-150.9" font-family="Times Roman,serif" font-size="14.00">index</text>
<text text-anchor="start" x="203.724" y="-132.9" font-family="Times Roman,serif" font-size="14.00">new</text>
<text text-anchor="start" x="203.724" y="-114.9" font-family="Times Roman,serif" font-size="14.00">show</text>
<text text-anchor="start" x="203.724" y="-96.9" font-family="Times Roman,serif" font-size="14.00">update</text>
<polyline fill="none" stroke="black" points="195.724,-87.5 341.724,-87.5 "/>
<polyline fill="none" stroke="black" points="195.724,-63.5 341.724,-63.5 "/>
<text text-anchor="start" x="203.724" y="-46.9" font-family="Times Roman,serif" font-size="14.00">_layout</text>
<text text-anchor="start" x="203.724" y="-28.9" font-family="Times Roman,serif" font-size="14.00">product_params</text>
<text text-anchor="start" x="203.724" y="-10.9" font-family="Times Roman,serif" font-size="14.00">set_product</text>
</g>
<!-- ApplicationController&#45;&gt;ProductsController -->
<g id="edge4" class="edge"><title>ApplicationController&#45;&gt;ProductsController</title>
<path fill="none" stroke="black" d="M298.955,-320.732C295.57,-298.758 291.605,-273.023 287.682,-247.557"/>
</g>
<!-- SellersController -->
<g id="node5" class="node"><title>SellersController</title>
<polyline fill="none" stroke="black" points="62.3646,-389.33 169.365,-389.33 "/>
<path fill="none" stroke="black" d="M169.365,-389.33C175.365,-389.33 181.365,-395.33 181.365,-401.33"/>
<polyline fill="none" stroke="black" points="181.365,-401.33 181.365,-533.33 "/>
<path fill="none" stroke="black" d="M181.365,-533.33C181.365,-539.33 175.365,-545.33 169.365,-545.33"/>
<polyline fill="none" stroke="black" points="169.365,-545.33 62.3646,-545.33 "/>
<path fill="none" stroke="black" d="M62.3646,-545.33C56.3646,-545.33 50.3646,-539.33 50.3646,-533.33"/>
<polyline fill="none" stroke="black" points="50.3646,-533.33 50.3646,-401.33 "/>
<path fill="none" stroke="black" d="M50.3646,-401.33C50.3646,-395.33 56.3646,-389.33 62.3646,-389.33"/>
<text text-anchor="middle" x="115.865" y="-528.73" font-family="Times Roman,serif" font-size="14.00">SellersController</text>
<polyline fill="none" stroke="black" points="50.3646,-519.33 181.365,-519.33 "/>
<text text-anchor="start" x="58.3646" y="-502.73" font-family="Times Roman,serif" font-size="14.00">edit</text>
<text text-anchor="start" x="58.3646" y="-484.73" font-family="Times Roman,serif" font-size="14.00">seller_params</text>
<text text-anchor="start" x="58.3646" y="-466.73" font-family="Times Roman,serif" font-size="14.00">show</text>
<text text-anchor="start" x="58.3646" y="-448.73" font-family="Times Roman,serif" font-size="14.00">update</text>
<polyline fill="none" stroke="black" points="50.3646,-439.33 181.365,-439.33 "/>
<polyline fill="none" stroke="black" points="50.3646,-415.33 181.365,-415.33 "/>
<text text-anchor="start" x="58.3646" y="-398.73" font-family="Times Roman,serif" font-size="14.00">_layout</text>
</g>
<!-- ApplicationController&#45;&gt;SellersController -->
<g id="edge6" class="edge"><title>ApplicationController&#45;&gt;SellersController</title>
<path fill="none" stroke="black" d="M220.482,-420.283C207.403,-426.165 194.115,-432.141 181.593,-437.771"/>
</g>
</g>
</svg>
