<?xml version="1.0" encoding="UTF-8" standalone="no"?>
<!DOCTYPE svg PUBLIC "-//W3C//DTD SVG 1.1//EN"
 "http://www.w3.org/Graphics/SVG/1.1/DTD/svg11.dtd">
<!-- Generated by graphviz version 2.26.3 (20100126.1600)
 -->
<!-- Title: controllers_diagram Pages: 1 -->
<svg width="665pt" height="659pt"
 viewBox="0.00 0.00 665.00 658.89" xmlns="http://www.w3.org/2000/svg" xmlns:xlink="http://www.w3.org/1999/xlink">
<g id="graph1" class="graph" transform="scale(1 1) rotate(0) translate(4 654.891)">
<title>controllers_diagram</title>
<polygon fill="white" stroke="white" points="-4,5 -4,-654.891 662,-654.891 662,5 -4,5"/>
<!-- _diagram_info -->
<g id="node1" class="node"><title>_diagram_info</title>
<text text-anchor="start" x="414" y="-438.3" font-family="Times Roman,serif" font-size="13.00">Controllers diagram</text>
<text text-anchor="start" x="414" y="-421.3" font-family="Times Roman,serif" font-size="13.00">Date: Jan 20 2014 &#45; 17:39</text>
<text text-anchor="start" x="414" y="-404.3" font-family="Times Roman,serif" font-size="13.00">Migration version: 20140120152957</text>
<text text-anchor="start" x="414" y="-387.3" font-family="Times Roman,serif" font-size="13.00">Generated by RailRoady 1.1.1</text>
<text text-anchor="start" x="414" y="-370.3" font-family="Times Roman,serif" font-size="13.00">http://railroady.prestonlee.com</text>
</g>
<!-- HomeController -->
<g id="node2" class="node"><title>HomeController</title>
<polyline fill="none" stroke="black" points="13,-75.8315 121,-75.8315 "/>
<path fill="none" stroke="black" d="M121,-75.8315C127,-75.8315 133,-81.8315 133,-87.8315"/>
<polyline fill="none" stroke="black" points="133,-87.8315 133,-201.832 "/>
<path fill="none" stroke="black" d="M133,-201.832C133,-207.832 127,-213.832 121,-213.832"/>
<polyline fill="none" stroke="black" points="121,-213.832 13,-213.832 "/>
<path fill="none" stroke="black" d="M13,-213.832C7,-213.832 1,-207.832 1,-201.832"/>
<polyline fill="none" stroke="black" points="1,-201.832 1,-87.8315 "/>
<path fill="none" stroke="black" d="M1,-87.8315C1,-81.8315 7,-75.8315 13,-75.8315"/>
<text text-anchor="middle" x="67" y="-197.232" font-family="Times Roman,serif" font-size="14.00">HomeController</text>
<polyline fill="none" stroke="black" points="1,-187.832 133,-187.832 "/>
<text text-anchor="start" x="9" y="-171.232" font-family="Times Roman,serif" font-size="14.00">default_currency</text>
<text text-anchor="start" x="9" y="-153.232" font-family="Times Roman,serif" font-size="14.00">index</text>
<text text-anchor="start" x="9" y="-135.232" font-family="Times Roman,serif" font-size="14.00">set_currency</text>
<polyline fill="none" stroke="black" points="1,-125.832 133,-125.832 "/>
<polyline fill="none" stroke="black" points="1,-101.832 133,-101.832 "/>
<text text-anchor="start" x="9" y="-85.2315" font-family="Times Roman,serif" font-size="14.00">_layout</text>
</g>
<!-- ApplicationController -->
<g id="node3" class="node"><title>ApplicationController</title>
<polyline fill="none" stroke="black" points="176.817,-288.827 327.817,-288.827 "/>
<path fill="none" stroke="black" d="M327.817,-288.827C333.817,-288.827 339.817,-294.827 339.817,-300.827"/>
<polyline fill="none" stroke="black" points="339.817,-300.827 339.817,-414.827 "/>
<path fill="none" stroke="black" d="M339.817,-414.827C339.817,-420.827 333.817,-426.827 327.817,-426.827"/>
<polyline fill="none" stroke="black" points="327.817,-426.827 176.817,-426.827 "/>
<path fill="none" stroke="black" d="M176.817,-426.827C170.817,-426.827 164.817,-420.827 164.817,-414.827"/>
<polyline fill="none" stroke="black" points="164.817,-414.827 164.817,-300.827 "/>
<path fill="none" stroke="black" d="M164.817,-300.827C164.817,-294.827 170.817,-288.827 176.817,-288.827"/>
<text text-anchor="middle" x="252.317" y="-410.227" font-family="Times Roman,serif" font-size="14.00">ApplicationController</text>
<polyline fill="none" stroke="black" points="164.817,-400.827 339.817,-400.827 "/>
<text text-anchor="start" x="172.817" y="-384.227" font-family="Times Roman,serif" font-size="14.00">after_sign_in_path_for</text>
<text text-anchor="start" x="172.817" y="-366.227" font-family="Times Roman,serif" font-size="14.00">after_sign_up_path_for</text>
<text text-anchor="start" x="172.817" y="-348.227" font-family="Times Roman,serif" font-size="14.00">current_ability</text>
<polyline fill="none" stroke="black" points="164.817,-338.827 339.817,-338.827 "/>
<polyline fill="none" stroke="black" points="164.817,-314.827 339.817,-314.827 "/>
<text text-anchor="start" x="172.817" y="-298.227" font-family="Times Roman,serif" font-size="14.00">_layout</text>
</g>
<!-- ApplicationController&#45;&gt;HomeController -->
<g id="edge2" class="edge"><title>ApplicationController&#45;&gt;HomeController</title>
<path fill="none" stroke="black" d="M192.15,-288.674C171.33,-264.744 148.004,-237.934 127.182,-214.002"/>
</g>
<!-- ProductsController -->
<g id="node4" class="node"><title>ProductsController</title>
<polyline fill="none" stroke="black" points="328.406,-1.5 450.406,-1.5 "/>
<path fill="none" stroke="black" d="M450.406,-1.5C456.406,-1.5 462.406,-7.5 462.406,-13.5"/>
<polyline fill="none" stroke="black" points="462.406,-13.5 462.406,-253.5 "/>
<path fill="none" stroke="black" d="M462.406,-253.5C462.406,-259.5 456.406,-265.5 450.406,-265.5"/>
<polyline fill="none" stroke="black" points="450.406,-265.5 328.406,-265.5 "/>
<path fill="none" stroke="black" d="M328.406,-265.5C322.406,-265.5 316.406,-259.5 316.406,-253.5"/>
<polyline fill="none" stroke="black" points="316.406,-253.5 316.406,-13.5 "/>
<path fill="none" stroke="black" d="M316.406,-13.5C316.406,-7.5 322.406,-1.5 328.406,-1.5"/>
<text text-anchor="middle" x="389.406" y="-248.9" font-family="Times Roman,serif" font-size="14.00">ProductsController</text>
<polyline fill="none" stroke="black" points="316.406,-239.5 462.406,-239.5 "/>
<text text-anchor="start" x="324.406" y="-222.9" font-family="Times Roman,serif" font-size="14.00">create</text>
<text text-anchor="start" x="324.406" y="-204.9" font-family="Times Roman,serif" font-size="14.00">destroy</text>
<text text-anchor="start" x="324.406" y="-186.9" font-family="Times Roman,serif" font-size="14.00">edit</text>
<text text-anchor="start" x="324.406" y="-168.9" font-family="Times Roman,serif" font-size="14.00">index</text>
<text text-anchor="start" x="324.406" y="-150.9" font-family="Times Roman,serif" font-size="14.00">new</text>
<text text-anchor="start" x="324.406" y="-132.9" font-family="Times Roman,serif" font-size="14.00">remove</text>
<text text-anchor="start" x="324.406" y="-114.9" font-family="Times Roman,serif" font-size="14.00">show</text>
<text text-anchor="start" x="324.406" y="-96.9" font-family="Times Roman,serif" font-size="14.00">update</text>
<polyline fill="none" stroke="black" points="316.406,-87.5 462.406,-87.5 "/>
<polyline fill="none" stroke="black" points="316.406,-63.5 462.406,-63.5 "/>
<text text-anchor="start" x="324.406" y="-46.9" font-family="Times Roman,serif" font-size="14.00">_layout</text>
<text text-anchor="start" x="324.406" y="-28.9" font-family="Times Roman,serif" font-size="14.00">product_params</text>
<text text-anchor="start" x="324.406" y="-10.9" font-family="Times Roman,serif" font-size="14.00">set_product</text>
</g>
<!-- ApplicationController&#45;&gt;ProductsController -->
<g id="edge4" class="edge"><title>ApplicationController&#45;&gt;ProductsController</title>
<path fill="none" stroke="black" d="M294.567,-288.691C301.49,-277.362 308.835,-265.343 316.252,-253.206"/>
</g>
<!-- SellersController -->
<g id="node5" class="node"><title>SellersController</title>
<polyline fill="none" stroke="black" points="14.4721,-493.391 121.472,-493.391 "/>
<path fill="none" stroke="black" d="M121.472,-493.391C127.472,-493.391 133.472,-499.391 133.472,-505.391"/>
<polyline fill="none" stroke="black" points="133.472,-505.391 133.472,-637.391 "/>
<path fill="none" stroke="black" d="M133.472,-637.391C133.472,-643.391 127.472,-649.391 121.472,-649.391"/>
<polyline fill="none" stroke="black" points="121.472,-649.391 14.4721,-649.391 "/>
<path fill="none" stroke="black" d="M14.4721,-649.391C8.47212,-649.391 2.47212,-643.391 2.47212,-637.391"/>
<polyline fill="none" stroke="black" points="2.47212,-637.391 2.47212,-505.391 "/>
<path fill="none" stroke="black" d="M2.47212,-505.391C2.47212,-499.391 8.47212,-493.391 14.4721,-493.391"/>
<text text-anchor="middle" x="67.9721" y="-632.791" font-family="Times Roman,serif" font-size="14.00">SellersController</text>
<polyline fill="none" stroke="black" points="2.47212,-623.391 133.472,-623.391 "/>
<text text-anchor="start" x="10.4721" y="-606.791" font-family="Times Roman,serif" font-size="14.00">edit</text>
<text text-anchor="start" x="10.4721" y="-588.791" font-family="Times Roman,serif" font-size="14.00">seller_params</text>
<text text-anchor="start" x="10.4721" y="-570.791" font-family="Times Roman,serif" font-size="14.00">show</text>
<text text-anchor="start" x="10.4721" y="-552.791" font-family="Times Roman,serif" font-size="14.00">update</text>
<polyline fill="none" stroke="black" points="2.47212,-543.391 133.472,-543.391 "/>
<polyline fill="none" stroke="black" points="2.47212,-519.391 133.472,-519.391 "/>
<text text-anchor="start" x="10.4721" y="-502.791" font-family="Times Roman,serif" font-size="14.00">_layout</text>
</g>
<!-- ApplicationController&#45;&gt;SellersController -->
<g id="edge6" class="edge"><title>ApplicationController&#45;&gt;SellersController</title>
<path fill="none" stroke="black" d="M192.72,-426.87C173.891,-448.685 152.979,-472.91 133.744,-495.195"/>
</g>
<!-- TagsController -->
<g id="node6" class="node"><title>TagsController</title>
<polyline fill="none" stroke="black" points="344.659,-529.527 436.659,-529.527 "/>
<path fill="none" stroke="black" d="M436.659,-529.527C442.659,-529.527 448.659,-535.527 448.659,-541.527"/>
<polyline fill="none" stroke="black" points="448.659,-541.527 448.659,-619.527 "/>
<path fill="none" stroke="black" d="M448.659,-619.527C448.659,-625.527 442.659,-631.527 436.659,-631.527"/>
<polyline fill="none" stroke="black" points="436.659,-631.527 344.659,-631.527 "/>
<path fill="none" stroke="black" d="M344.659,-631.527C338.659,-631.527 332.659,-625.527 332.659,-619.527"/>
<polyline fill="none" stroke="black" points="332.659,-619.527 332.659,-541.527 "/>
<path fill="none" stroke="black" d="M332.659,-541.527C332.659,-535.527 338.659,-529.527 344.659,-529.527"/>
<text text-anchor="middle" x="390.659" y="-614.927" font-family="Times Roman,serif" font-size="14.00">TagsController</text>
<polyline fill="none" stroke="black" points="332.659,-605.527 448.659,-605.527 "/>
<text text-anchor="start" x="340.659" y="-588.927" font-family="Times Roman,serif" font-size="14.00">index</text>
<polyline fill="none" stroke="black" points="332.659,-579.527 448.659,-579.527 "/>
<polyline fill="none" stroke="black" points="332.659,-555.527 448.659,-555.527 "/>
<text text-anchor="start" x="340.659" y="-538.927" font-family="Times Roman,serif" font-size="14.00">_layout</text>
</g>
<!-- ApplicationController&#45;&gt;TagsController -->
<g id="edge8" class="edge"><title>ApplicationController&#45;&gt;TagsController</title>
<path fill="none" stroke="black" d="M295.331,-427.07C315.874,-460.14 340.027,-499.021 358.881,-529.372"/>
</g>
</g>
</svg>
