<?xml version="1.0" encoding="UTF-8" standalone="no"?>
<!DOCTYPE svg PUBLIC "-//W3C//DTD SVG 1.1//EN"
 "http://www.w3.org/Graphics/SVG/1.1/DTD/svg11.dtd">
<!-- Generated by graphviz version 2.26.3 (20100126.1600)
 -->
<!-- Title: models_diagram Pages: 1 -->
<svg width="548pt" height="324pt"
 viewBox="0.00 0.00 547.98 324.00" xmlns="http://www.w3.org/2000/svg" xmlns:xlink="http://www.w3.org/1999/xlink">
<g id="graph1" class="graph" transform="scale(1 1) rotate(0) translate(4 320)">
<title>models_diagram</title>
<polygon fill="white" stroke="white" points="-4,5 -4,-320 544.977,-320 544.977,5 -4,5"/>
<!-- _diagram_info -->
<g id="node1" class="node"><title>_diagram_info</title>
<text text-anchor="start" x="8" y="-299.8" font-family="Times Roman,serif" font-size="13.00">Models diagram</text>
<text text-anchor="start" x="8" y="-282.8" font-family="Times Roman,serif" font-size="13.00">Date: Jan 20 2014 &#45; 17:39</text>
<text text-anchor="start" x="8" y="-265.8" font-family="Times Roman,serif" font-size="13.00">Migration version: 20140120152957</text>
<text text-anchor="start" x="8" y="-248.8" font-family="Times Roman,serif" font-size="13.00">Generated by RailRoady 1.1.1</text>
<text text-anchor="start" x="8" y="-231.8" font-family="Times Roman,serif" font-size="13.00">http://railroady.prestonlee.com</text>
</g>
<!-- Size -->
<g id="node2" class="node"><title>Size</title>
<ellipse fill="none" stroke="black" cx="416" cy="-167" rx="32.0265" ry="18.3848"/>
<text text-anchor="middle" x="416" y="-163.4" font-family="Times Roman,serif" font-size="14.00">Size</text>
</g>
<!-- Product -->
<g id="node4" class="node"><title>Product</title>
<ellipse fill="none" stroke="black" cx="372" cy="-93" rx="48.9975" ry="18.3848"/>
<text text-anchor="middle" x="372" y="-89.4" font-family="Times Roman,serif" font-size="14.00">Product</text>
</g>
<!-- Size&#45;&gt;Product -->
<g id="edge2" class="edge"><title>Size&#45;&gt;Product</title>
<path fill="none" stroke="#0ae8eb" d="M400.455,-140.857C396.445,-134.112 392.12,-126.839 388.083,-120.049"/>
<polygon fill="#0ae8eb" stroke="#0ae8eb" points="400.462,-140.868 401.705,-151.763 403.017,-145.165 405.573,-149.463 405.573,-149.463 405.573,-149.463 403.017,-145.165 409.441,-147.163 400.462,-140.868 400.462,-140.868"/>
<polygon fill="#0ae8eb" stroke="#0ae8eb" points="387.923,-119.779 386.68,-108.884 385.367,-115.482 382.812,-111.184 382.812,-111.184 382.812,-111.184 385.367,-115.482 378.944,-113.484 387.923,-119.779 387.923,-119.779"/>
</g>
<!-- Tag -->
<g id="node3" class="node"><title>Tag</title>
<ellipse fill="none" stroke="black" cx="494" cy="-167" rx="27.7881" ry="18.3848"/>
<text text-anchor="middle" x="494" y="-163.4" font-family="Times Roman,serif" font-size="14.00">Tag</text>
</g>
<!-- Tag&#45;&gt;Product -->
<g id="edge6" class="edge"><title>Tag&#45;&gt;Product</title>
<path fill="none" stroke="#d47bf3" d="M464.74,-149.252C447.243,-138.639 424.918,-125.098 406.556,-113.96"/>
<polygon fill="#d47bf3" stroke="#d47bf3" points="464.754,-149.261 470.971,-158.294 469.029,-151.854 473.304,-154.447 473.304,-154.447 473.304,-154.447 469.029,-151.854 475.638,-150.599 464.754,-149.261 464.754,-149.261"/>
<polygon fill="#d47bf3" stroke="#d47bf3" points="406.449,-113.895 400.232,-104.862 402.174,-111.302 397.899,-108.709 397.899,-108.709 397.899,-108.709 402.174,-111.302 395.565,-112.557 406.449,-113.895 406.449,-113.895"/>
</g>
<!-- Price -->
<g id="node5" class="node"><title>Price</title>
<ellipse fill="none" stroke="black" cx="275" cy="-19" rx="34.8574" ry="18.3848"/>
<text text-anchor="middle" x="275" y="-15.4" font-family="Times Roman,serif" font-size="14.00">Price</text>
</g>
<!-- Product&#45;&gt;Price -->
<g id="edge12" class="edge"><title>Product&#45;&gt;Price</title>
<path fill="none" stroke="#7fe7c7" d="M343.531,-71.2812C330.242,-61.1431 314.518,-49.148 301.486,-39.2062"/>
<ellipse fill="none" stroke="#7fe7c7" cx="346.809" cy="-73.7821" rx="4.00002" ry="4.00002"/>
<ellipse fill="#7fe7c7" stroke="#7fe7c7" cx="298.124" cy="-36.6413" rx="4.00002" ry="4.00002"/>
</g>
<!-- Color -->
<g id="node6" class="node"><title>Color</title>
<ellipse fill="none" stroke="black" cx="417" cy="-19" rx="36.977" ry="18.3848"/>
<text text-anchor="middle" x="417" y="-15.4" font-family="Times Roman,serif" font-size="14.00">Color</text>
</g>
<!-- Product&#45;&gt;Color -->
<g id="edge10" class="edge"><title>Product&#45;&gt;Color</title>
<path fill="none" stroke="#a795c2" d="M388.343,-66.1243C392.42,-59.4201 396.789,-52.2355 400.856,-45.5473"/>
<polygon fill="#a795c2" stroke="#a795c2" points="388.319,-66.1636 379.279,-72.3697 385.722,-70.4357 383.124,-74.7079 383.124,-74.7079 383.124,-74.7079 385.722,-70.4357 386.969,-77.046 388.319,-66.1636 388.319,-66.1636"/>
<polygon fill="#a795c2" stroke="#a795c2" points="400.964,-45.3706 410.005,-39.1645 403.562,-41.0985 406.16,-36.8264 406.16,-36.8264 406.16,-36.8264 403.562,-41.0985 402.315,-34.4882 400.964,-45.3706 400.964,-45.3706"/>
</g>
<!-- Seller -->
<g id="node7" class="node"><title>Seller</title>
<ellipse fill="none" stroke="black" cx="327" cy="-167" rx="39.0967" ry="18.3848"/>
<text text-anchor="middle" x="327" y="-163.4" font-family="Times Roman,serif" font-size="14.00">Seller</text>
</g>
<!-- Seller&#45;&gt;Product -->
<g id="edge20" class="edge"><title>Seller&#45;&gt;Product</title>
<path fill="none" stroke="#8b3a68" d="M342.182,-142.034C346.491,-134.948 351.202,-127.201 355.581,-120"/>
<ellipse fill="none" stroke="#8b3a68" cx="339.972" cy="-145.669" rx="4.00002" ry="4.00002"/>
<polygon fill="#8b3a68" stroke="#8b3a68" points="355.699,-119.807 364.739,-113.601 358.297,-115.535 360.894,-111.262 360.894,-111.262 360.894,-111.262 358.297,-115.535 357.05,-108.924 355.699,-119.807 355.699,-119.807"/>
</g>
<!-- ActiveRecord::Base -->
<g id="node9" class="node"><title>ActiveRecord::Base</title>
<ellipse fill="none" stroke="black" cx="372" cy="-269" rx="104.151" ry="18.3848"/>
<text text-anchor="middle" x="372" y="-265.4" font-family="Times Roman,serif" font-size="14.00">ActiveRecord::Base</text>
</g>
<!-- ActiveRecord::Base&#45;&gt;Size -->
<g id="edge4" class="edge"><title>ActiveRecord::Base&#45;&gt;Size</title>
<path fill="none" stroke="black" d="M380.07,-250.292C388.059,-231.773 400.21,-203.603 408.129,-185.247"/>
</g>
<!-- ActiveRecord::Base&#45;&gt;Tag -->
<g id="edge8" class="edge"><title>ActiveRecord::Base&#45;&gt;Tag</title>
<path fill="none" stroke="black" d="M393.811,-250.764C417.388,-231.052 454.51,-200.016 476.333,-181.77"/>
</g>
<!-- ActiveRecord::Base&#45;&gt;Product -->
<g id="edge14" class="edge"><title>ActiveRecord::Base&#45;&gt;Product</title>
<path fill="none" stroke="black" d="M341.239,-251.252C306.164,-228.599 256.421,-187.585 279,-148 290.803,-127.307 313.784,-113.609 333.946,-105.059"/>
</g>
<!-- ActiveRecord::Base&#45;&gt;Price -->
<g id="edge16" class="edge"><title>ActiveRecord::Base&#45;&gt;Price</title>
<path fill="none" stroke="black" d="M337.364,-251.55C313.572,-237.455 283.873,-215.174 270,-186 246.52,-136.622 260.329,-69.4169 269.243,-37.4096"/>
</g>
<!-- ActiveRecord::Base&#45;&gt;Color -->
<g id="edge18" class="edge"><title>ActiveRecord::Base&#45;&gt;Color</title>
<path fill="none" stroke="black" d="M433.584,-253.911C468.718,-241.802 509.858,-220.886 531,-186 566.206,-127.909 483.059,-62.2241 440.362,-33.614"/>
</g>
<!-- ActiveRecord::Base&#45;&gt;Seller -->
<g id="edge22" class="edge"><title>ActiveRecord::Base&#45;&gt;Seller</title>
<path fill="none" stroke="black" d="M363.746,-250.292C355.576,-231.773 343.148,-203.603 335.05,-185.247"/>
</g>
</g>
</svg>
