<?xml version="1.0" encoding="UTF-8" standalone="no"?>
<!DOCTYPE svg PUBLIC "-//W3C//DTD SVG 1.1//EN"
 "http://www.w3.org/Graphics/SVG/1.1/DTD/svg11.dtd">
<!-- Generated by graphviz version 2.26.3 (20100126.1600)
 -->
<!-- Title: models_diagram Pages: 1 -->
<svg width="756pt" height="768pt"
 viewBox="0.00 0.00 756.00 768.00" xmlns="http://www.w3.org/2000/svg" xmlns:xlink="http://www.w3.org/1999/xlink">
<g id="graph1" class="graph" transform="scale(1 1) rotate(0) translate(4 764)">
<title>models_diagram</title>
<polygon fill="white" stroke="white" points="-4,5 -4,-764 753,-764 753,5 -4,5"/>
<!-- _diagram_info -->
<g id="node1" class="node"><title>_diagram_info</title>
<text text-anchor="start" x="8" y="-743.8" font-family="Times Roman,serif" font-size="13.00">Models diagram</text>
<text text-anchor="start" x="8" y="-726.8" font-family="Times Roman,serif" font-size="13.00">Date: Jan 15 2014 &#45; 22:31</text>
<text text-anchor="start" x="8" y="-709.8" font-family="Times Roman,serif" font-size="13.00">Migration version: 20140115140458</text>
<text text-anchor="start" x="8" y="-692.8" font-family="Times Roman,serif" font-size="13.00">Generated by RailRoady 1.1.1</text>
<text text-anchor="start" x="8" y="-675.8" font-family="Times Roman,serif" font-size="13.00">http://railroady.prestonlee.com</text>
</g>
<!-- Size -->
<g id="node2" class="node"><title>Size</title>
<polyline fill="none" stroke="black" points="301.5,-496 442.5,-496 "/>
<path fill="none" stroke="black" d="M442.5,-496C448.5,-496 454.5,-502 454.5,-508"/>
<polyline fill="none" stroke="black" points="454.5,-508 454.5,-590 "/>
<path fill="none" stroke="black" d="M454.5,-590C454.5,-596 448.5,-602 442.5,-602"/>
<polyline fill="none" stroke="black" points="442.5,-602 301.5,-602 "/>
<path fill="none" stroke="black" d="M301.5,-602C295.5,-602 289.5,-596 289.5,-590"/>
<polyline fill="none" stroke="black" points="289.5,-590 289.5,-508 "/>
<path fill="none" stroke="black" d="M289.5,-508C289.5,-502 295.5,-496 301.5,-496"/>
<text text-anchor="middle" x="372" y="-585.4" font-family="Times Roman,serif" font-size="14.00">Size</text>
<polyline fill="none" stroke="black" points="289.5,-576 454.5,-576 "/>
<text text-anchor="start" x="297.5" y="-559.4" font-family="Times Roman,serif" font-size="14.00">id :integer</text>
<text text-anchor="start" x="297.5" y="-541.4" font-family="Times Roman,serif" font-size="14.00">name :string</text>
<text text-anchor="start" x="297.5" y="-523.4" font-family="Times Roman,serif" font-size="14.00">created_at :datetime</text>
<text text-anchor="start" x="297.5" y="-505.4" font-family="Times Roman,serif" font-size="14.00">updated_at :datetime</text>
</g>
<!-- Product -->
<g id="node3" class="node"><title>Product</title>
<polyline fill="none" stroke="black" points="245.5,-181 442.5,-181 "/>
<path fill="none" stroke="black" d="M442.5,-181C448.5,-181 454.5,-187 454.5,-193"/>
<polyline fill="none" stroke="black" points="454.5,-193 454.5,-419 "/>
<path fill="none" stroke="black" d="M454.5,-419C454.5,-425 448.5,-431 442.5,-431"/>
<polyline fill="none" stroke="black" points="442.5,-431 245.5,-431 "/>
<path fill="none" stroke="black" d="M245.5,-431C239.5,-431 233.5,-425 233.5,-419"/>
<polyline fill="none" stroke="black" points="233.5,-419 233.5,-193 "/>
<path fill="none" stroke="black" d="M233.5,-193C233.5,-187 239.5,-181 245.5,-181"/>
<text text-anchor="middle" x="344" y="-414.4" font-family="Times Roman,serif" font-size="14.00">Product</text>
<polyline fill="none" stroke="black" points="233.5,-405 454.5,-405 "/>
<text text-anchor="start" x="241.5" y="-388.4" font-family="Times Roman,serif" font-size="14.00">id :integer</text>
<text text-anchor="start" x="241.5" y="-370.4" font-family="Times Roman,serif" font-size="14.00">name :string</text>
<text text-anchor="start" x="241.5" y="-352.4" font-family="Times Roman,serif" font-size="14.00">description :text</text>
<text text-anchor="start" x="241.5" y="-334.4" font-family="Times Roman,serif" font-size="14.00">company :string</text>
<text text-anchor="start" x="241.5" y="-316.4" font-family="Times Roman,serif" font-size="14.00">count :integer</text>
<text text-anchor="start" x="241.5" y="-298.4" font-family="Times Roman,serif" font-size="14.00">published :boolean</text>
<text text-anchor="start" x="241.5" y="-280.4" font-family="Times Roman,serif" font-size="14.00">created_at :datetime</text>
<text text-anchor="start" x="241.5" y="-262.4" font-family="Times Roman,serif" font-size="14.00">updated_at :datetime</text>
<text text-anchor="start" x="241.5" y="-244.4" font-family="Times Roman,serif" font-size="14.00">picture_file_name :string</text>
<text text-anchor="start" x="241.5" y="-226.4" font-family="Times Roman,serif" font-size="14.00">picture_content_type :string</text>
<text text-anchor="start" x="241.5" y="-208.4" font-family="Times Roman,serif" font-size="14.00">picture_file_size :integer</text>
<text text-anchor="start" x="241.5" y="-190.4" font-family="Times Roman,serif" font-size="14.00">picture_updated_at :datetime</text>
</g>
<!-- Size&#45;&gt;Product -->
<g id="edge2" class="edge"><title>Size&#45;&gt;Product</title>
<path fill="none" stroke="#e01488" d="M364.712,-485.75C363.119,-471.927 361.374,-456.785 359.595,-441.342"/>
<polygon fill="#e01488" stroke="#e01488" points="364.745,-486.039 361.419,-496.488 365.317,-491.006 365.89,-495.973 365.89,-495.973 365.89,-495.973 365.317,-491.006 370.36,-495.458 364.745,-486.039 364.745,-486.039"/>
<polygon fill="#e01488" stroke="#e01488" points="359.567,-441.095 362.892,-430.645 358.994,-436.128 358.422,-431.161 358.422,-431.161 358.422,-431.161 358.994,-436.128 353.951,-431.676 359.567,-441.095 359.567,-441.095"/>
</g>
<!-- Price -->
<g id="node4" class="node"><title>Price</title>
<polyline fill="none" stroke="black" points="158.5,-1 299.5,-1 "/>
<path fill="none" stroke="black" d="M299.5,-1C305.5,-1 311.5,-7 311.5,-13"/>
<polyline fill="none" stroke="black" points="311.5,-13 311.5,-131 "/>
<path fill="none" stroke="black" d="M311.5,-131C311.5,-137 305.5,-143 299.5,-143"/>
<polyline fill="none" stroke="black" points="299.5,-143 158.5,-143 "/>
<path fill="none" stroke="black" d="M158.5,-143C152.5,-143 146.5,-137 146.5,-131"/>
<polyline fill="none" stroke="black" points="146.5,-131 146.5,-13 "/>
<path fill="none" stroke="black" d="M146.5,-13C146.5,-7 152.5,-1 158.5,-1"/>
<text text-anchor="middle" x="229" y="-126.4" font-family="Times Roman,serif" font-size="14.00">Price</text>
<polyline fill="none" stroke="black" points="146.5,-117 311.5,-117 "/>
<text text-anchor="start" x="154.5" y="-100.4" font-family="Times Roman,serif" font-size="14.00">id :integer</text>
<text text-anchor="start" x="154.5" y="-82.4" font-family="Times Roman,serif" font-size="14.00">amount :decimal</text>
<text text-anchor="start" x="154.5" y="-64.4" font-family="Times Roman,serif" font-size="14.00">currency :string</text>
<text text-anchor="start" x="154.5" y="-46.4" font-family="Times Roman,serif" font-size="14.00">product_id :integer</text>
<text text-anchor="start" x="154.5" y="-28.4" font-family="Times Roman,serif" font-size="14.00">created_at :datetime</text>
<text text-anchor="start" x="154.5" y="-10.4" font-family="Times Roman,serif" font-size="14.00">updated_at :datetime</text>
</g>
<!-- Product&#45;&gt;Price -->
<g id="edge8" class="edge"><title>Product&#45;&gt;Price</title>
<path fill="none" stroke="#105a31" d="M278.894,-173.524C275.044,-165.689 271.239,-157.948 267.552,-150.445"/>
<ellipse fill="none" stroke="#105a31" cx="280.696" cy="-177.19" rx="4.00002" ry="4.00002"/>
<ellipse fill="#105a31" stroke="#105a31" cx="265.671" cy="-146.616" rx="4.00002" ry="4.00002"/>
</g>
<!-- Color -->
<g id="node5" class="node"><title>Color</title>
<polyline fill="none" stroke="black" points="387.5,-19 528.5,-19 "/>
<path fill="none" stroke="black" d="M528.5,-19C534.5,-19 540.5,-25 540.5,-31"/>
<polyline fill="none" stroke="black" points="540.5,-31 540.5,-113 "/>
<path fill="none" stroke="black" d="M540.5,-113C540.5,-119 534.5,-125 528.5,-125"/>
<polyline fill="none" stroke="black" points="528.5,-125 387.5,-125 "/>
<path fill="none" stroke="black" d="M387.5,-125C381.5,-125 375.5,-119 375.5,-113"/>
<polyline fill="none" stroke="black" points="375.5,-113 375.5,-31 "/>
<path fill="none" stroke="black" d="M375.5,-31C375.5,-25 381.5,-19 387.5,-19"/>
<text text-anchor="middle" x="458" y="-108.4" font-family="Times Roman,serif" font-size="14.00">Color</text>
<polyline fill="none" stroke="black" points="375.5,-99 540.5,-99 "/>
<text text-anchor="start" x="383.5" y="-82.4" font-family="Times Roman,serif" font-size="14.00">id :integer</text>
<text text-anchor="start" x="383.5" y="-64.4" font-family="Times Roman,serif" font-size="14.00">name :string</text>
<text text-anchor="start" x="383.5" y="-46.4" font-family="Times Roman,serif" font-size="14.00">created_at :datetime</text>
<text text-anchor="start" x="383.5" y="-28.4" font-family="Times Roman,serif" font-size="14.00">updated_at :datetime</text>
</g>
<!-- Product&#45;&gt;Color -->
<g id="edge6" class="edge"><title>Product&#45;&gt;Color</title>
<path fill="none" stroke="#ab4ca4" d="M409.456,-171.642C415.752,-158.72 421.907,-146.087 427.604,-134.392"/>
<polygon fill="#ab4ca4" stroke="#ab4ca4" points="409.385,-171.79 400.959,-178.809 407.195,-176.285 405.005,-180.779 405.005,-180.779 405.005,-180.779 407.195,-176.285 409.05,-182.75 409.385,-171.79 409.385,-171.79"/>
<polygon fill="#ab4ca4" stroke="#ab4ca4" points="427.69,-134.216 436.115,-127.197 429.879,-129.721 432.069,-125.226 432.069,-125.226 432.069,-125.226 429.879,-129.721 428.024,-123.255 427.69,-134.216 427.69,-134.216"/>
</g>
<!-- Seller -->
<g id="node6" class="node"><title>Seller</title>
<polyline fill="none" stroke="black" points="521.5,-469 736.5,-469 "/>
<path fill="none" stroke="black" d="M736.5,-469C742.5,-469 748.5,-475 748.5,-481"/>
<polyline fill="none" stroke="black" points="748.5,-481 748.5,-617 "/>
<path fill="none" stroke="black" d="M748.5,-617C748.5,-623 742.5,-629 736.5,-629"/>
<polyline fill="none" stroke="black" points="736.5,-629 521.5,-629 "/>
<path fill="none" stroke="black" d="M521.5,-629C515.5,-629 509.5,-623 509.5,-617"/>
<polyline fill="none" stroke="black" points="509.5,-617 509.5,-481 "/>
<path fill="none" stroke="black" d="M509.5,-481C509.5,-475 515.5,-469 521.5,-469"/>
<text text-anchor="middle" x="629" y="-612.4" font-family="Times Roman,serif" font-size="14.00">Seller</text>
<polyline fill="none" stroke="black" points="509.5,-603 748.5,-603 "/>
<text text-anchor="start" x="517.5" y="-586.4" font-family="Times Roman,serif" font-size="14.00">id :integer</text>
<text text-anchor="start" x="517.5" y="-568.4" font-family="Times Roman,serif" font-size="14.00">email :string</text>
<text text-anchor="start" x="517.5" y="-550.4" font-family="Times Roman,serif" font-size="14.00">encrypted_password :string</text>
<text text-anchor="start" x="517.5" y="-532.4" font-family="Times Roman,serif" font-size="14.00">phone :string</text>
<text text-anchor="start" x="517.5" y="-514.4" font-family="Times Roman,serif" font-size="14.00">remember_created_at :datetime</text>
<text text-anchor="start" x="517.5" y="-496.4" font-family="Times Roman,serif" font-size="14.00">created_at :datetime</text>
<text text-anchor="start" x="517.5" y="-478.4" font-family="Times Roman,serif" font-size="14.00">updated_at :datetime</text>
</g>
<!-- ActiveRecord::Base -->
<g id="node8" class="node"><title>ActiveRecord::Base</title>
<ellipse fill="none" stroke="black" cx="372" cy="-713" rx="104.151" ry="18.3848"/>
<text text-anchor="middle" x="372" y="-709.4" font-family="Times Roman,serif" font-size="14.00">ActiveRecord::Base</text>
</g>
<!-- ActiveRecord::Base&#45;&gt;Size -->
<g id="edge4" class="edge"><title>ActiveRecord::Base&#45;&gt;Size</title>
<path fill="none" stroke="black" d="M372,-694.187C372,-671.891 372,-633.781 372,-602.2"/>
</g>
<!-- ActiveRecord::Base&#45;&gt;Product -->
<g id="edge10" class="edge"><title>ActiveRecord::Base&#45;&gt;Product</title>
<path fill="none" stroke="black" d="M341.679,-695.113C320.295,-680.594 293.347,-657.974 281,-630 253.406,-567.485 265.19,-492.907 285.654,-431.07"/>
</g>
<!-- ActiveRecord::Base&#45;&gt;Price -->
<g id="edge12" class="edge"><title>ActiveRecord::Base&#45;&gt;Price</title>
<path fill="none" stroke="black" d="M336.268,-695.565C311.17,-681.412 278.985,-659.053 261,-630 166.897,-477.984 191.675,-255.74 212.956,-143.104"/>
</g>
<!-- ActiveRecord::Base&#45;&gt;Color -->
<g id="edge14" class="edge"><title>ActiveRecord::Base&#45;&gt;Color</title>
<path fill="none" stroke="black" d="M402.321,-695.113C423.705,-680.594 450.653,-657.974 463,-630 502.365,-540.817 476.748,-247.007 463.99,-125.413"/>
</g>
<!-- ActiveRecord::Base&#45;&gt;Seller -->
<g id="edge16" class="edge"><title>ActiveRecord::Base&#45;&gt;Seller</title>
<path fill="none" stroke="black" d="M399.993,-695.137C426.662,-678.118 468.688,-651.3 509.498,-625.258"/>
</g>
</g>
</svg>
