<?xml version="1.0" encoding="UTF-8" standalone="no"?>
<!DOCTYPE svg PUBLIC "-//W3C//DTD SVG 1.1//EN"
 "http://www.w3.org/Graphics/SVG/1.1/DTD/svg11.dtd">
<!-- Generated by graphviz version 2.26.3 (20100126.1600)
 -->
<!-- Title: models_diagram Pages: 1 -->
<svg width="546pt" height="324pt"
 viewBox="0.00 0.00 546.00 324.00" xmlns="http://www.w3.org/2000/svg" xmlns:xlink="http://www.w3.org/1999/xlink">
<g id="graph1" class="graph" transform="scale(1 1) rotate(0) translate(4 320)">
<title>models_diagram</title>
<polygon fill="white" stroke="white" points="-4,5 -4,-320 543,-320 543,5 -4,5"/>
<!-- _diagram_info -->
<g id="node1" class="node"><title>_diagram_info</title>
<text text-anchor="start" x="8" y="-299.8" font-family="Times Roman,serif" font-size="13.00">Models diagram</text>
<text text-anchor="start" x="8" y="-282.8" font-family="Times Roman,serif" font-size="13.00">Date: Jan 15 2014 &#45; 22:31</text>
<text text-anchor="start" x="8" y="-265.8" font-family="Times Roman,serif" font-size="13.00">Migration version: 20140115140458</text>
<text text-anchor="start" x="8" y="-248.8" font-family="Times Roman,serif" font-size="13.00">Generated by RailRoady 1.1.1</text>
<text text-anchor="start" x="8" y="-231.8" font-family="Times Roman,serif" font-size="13.00">http://railroady.prestonlee.com</text>
</g>
<!-- Size -->
<g id="node2" class="node"><title>Size</title>
<ellipse fill="none" stroke="black" cx="372" cy="-167" rx="32.0265" ry="18.3848"/>
<text text-anchor="middle" x="372" y="-163.4" font-family="Times Roman,serif" font-size="14.00">Size</text>
</g>
<!-- Product -->
<g id="node3" class="node"><title>Product</title>
<ellipse fill="none" stroke="black" cx="353" cy="-93" rx="48.9975" ry="18.3848"/>
<text text-anchor="middle" x="353" y="-89.4" font-family="Times Roman,serif" font-size="14.00">Product</text>
</g>
<!-- Size&#45;&gt;Product -->
<g id="edge2" class="edge"><title>Size&#45;&gt;Product</title>
<path fill="none" stroke="#de83c6" d="M364.701,-138.573C363.254,-132.937 361.735,-127.019 360.288,-121.384"/>
<polygon fill="#de83c6" stroke="#de83c6" points="364.719,-138.641 362.847,-149.446 365.962,-143.484 367.205,-148.327 367.205,-148.327 367.205,-148.327 365.962,-143.484 371.564,-147.208 364.719,-138.641 364.719,-138.641"/>
<polygon fill="#de83c6" stroke="#de83c6" points="360.28,-121.353 362.152,-110.548 359.036,-116.51 357.793,-111.667 357.793,-111.667 357.793,-111.667 359.036,-116.51 353.434,-112.786 360.28,-121.353 360.28,-121.353"/>
</g>
<!-- Price -->
<g id="node4" class="node"><title>Price</title>
<ellipse fill="none" stroke="black" cx="291" cy="-19" rx="34.8574" ry="18.3848"/>
<text text-anchor="middle" x="291" y="-15.4" font-family="Times Roman,serif" font-size="14.00">Price</text>
</g>
<!-- Product&#45;&gt;Price -->
<g id="edge8" class="edge"><title>Product&#45;&gt;Price</title>
<path fill="none" stroke="#212ea5" d="M332.617,-68.672C325.475,-60.1482 317.479,-50.6038 310.418,-42.1768"/>
<ellipse fill="none" stroke="#212ea5" cx="335.423" cy="-72.0206" rx="4.00002" ry="4.00002"/>
<ellipse fill="#212ea5" stroke="#212ea5" cx="307.8" cy="-39.0519" rx="4.00002" ry="4.00002"/>
</g>
<!-- Color -->
<g id="node5" class="node"><title>Color</title>
<ellipse fill="none" stroke="black" cx="415" cy="-19" rx="36.977" ry="18.3848"/>
<text text-anchor="middle" x="415" y="-15.4" font-family="Times Roman,serif" font-size="14.00">Color</text>
</g>
<!-- Product&#45;&gt;Color -->
<g id="edge6" class="edge"><title>Product&#45;&gt;Color</title>
<path fill="none" stroke="#d4326c" d="M374.61,-67.2076C380.915,-59.6815 387.794,-51.4722 394.057,-43.9963"/>
<polygon fill="#d4326c" stroke="#d4326c" points="374.431,-67.4214 364.559,-72.1967 371.22,-71.2541 368.008,-75.0867 368.008,-75.0867 368.008,-75.0867 371.22,-71.2541 371.458,-77.9767 374.431,-67.4214 374.431,-67.4214"/>
<polygon fill="#d4326c" stroke="#d4326c" points="394.134,-43.9041 404.006,-39.1288 397.346,-40.0714 400.557,-36.2388 400.557,-36.2388 400.557,-36.2388 397.346,-40.0714 397.107,-33.3488 394.134,-43.9041 394.134,-43.9041"/>
</g>
<!-- Seller -->
<g id="node6" class="node"><title>Seller</title>
<ellipse fill="none" stroke="black" cx="499" cy="-167" rx="39.0967" ry="18.3848"/>
<text text-anchor="middle" x="499" y="-163.4" font-family="Times Roman,serif" font-size="14.00">Seller</text>
</g>
<!-- ActiveRecord::Base -->
<g id="node8" class="node"><title>ActiveRecord::Base</title>
<ellipse fill="none" stroke="black" cx="372" cy="-269" rx="104.151" ry="18.3848"/>
<text text-anchor="middle" x="372" y="-265.4" font-family="Times Roman,serif" font-size="14.00">ActiveRecord::Base</text>
</g>
<!-- ActiveRecord::Base&#45;&gt;Size -->
<g id="edge4" class="edge"><title>ActiveRecord::Base&#45;&gt;Size</title>
<path fill="none" stroke="black" d="M372,-250.292C372,-231.888 372,-203.953 372,-185.59"/>
</g>
<!-- ActiveRecord::Base&#45;&gt;Product -->
<g id="edge10" class="edge"><title>ActiveRecord::Base&#45;&gt;Product</title>
<path fill="none" stroke="black" d="M359.751,-250.492C349.792,-234.263 336.519,-209.633 331,-186 327.159,-169.554 327.806,-164.584 331,-148 333.45,-135.276 338.818,-121.753 343.638,-111.301"/>
</g>
<!-- ActiveRecord::Base&#45;&gt;Price -->
<g id="edge12" class="edge"><title>ActiveRecord::Base&#45;&gt;Price</title>
<path fill="none" stroke="black" d="M358.971,-250.313C340.148,-221.984 306.36,-165.762 295,-112 289.654,-86.7014 289.428,-56.6979 290.01,-37.7529"/>
</g>
<!-- ActiveRecord::Base&#45;&gt;Color -->
<g id="edge14" class="edge"><title>ActiveRecord::Base&#45;&gt;Color</title>
<path fill="none" stroke="black" d="M384.178,-250.475C394.092,-234.236 407.34,-209.599 413,-186 425.612,-133.415 420.909,-68.8154 417.426,-37.6154"/>
</g>
<!-- ActiveRecord::Base&#45;&gt;Seller -->
<g id="edge16" class="edge"><title>ActiveRecord::Base&#45;&gt;Seller</title>
<path fill="none" stroke="black" d="M394.705,-250.764C418.678,-231.511 456.102,-201.453 478.999,-183.064"/>
</g>
</g>
</svg>
