<?xml version="1.0" encoding="UTF-8" standalone="no"?>
<!DOCTYPE svg PUBLIC "-//W3C//DTD SVG 1.1//EN"
 "http://www.w3.org/Graphics/SVG/1.1/DTD/svg11.dtd">
<!-- Generated by graphviz version 2.26.3 (20100126.1600)
 -->
<!-- Title: models_diagram Pages: 1 -->
<svg width="804pt" height="786pt"
 viewBox="0.00 0.00 804.38 786.00" xmlns="http://www.w3.org/2000/svg" xmlns:xlink="http://www.w3.org/1999/xlink">
<g id="graph1" class="graph" transform="scale(1 1) rotate(0) translate(4 782)">
<title>models_diagram</title>
<polygon fill="white" stroke="white" points="-4,5 -4,-782 801.382,-782 801.382,5 -4,5"/>
<!-- _diagram_info -->
<g id="node1" class="node"><title>_diagram_info</title>
<text text-anchor="start" x="8" y="-761.8" font-family="Times Roman,serif" font-size="13.00">Models diagram</text>
<text text-anchor="start" x="8" y="-744.8" font-family="Times Roman,serif" font-size="13.00">Date: Jan 20 2014 &#45; 17:38</text>
<text text-anchor="start" x="8" y="-727.8" font-family="Times Roman,serif" font-size="13.00">Migration version: 20140120152957</text>
<text text-anchor="start" x="8" y="-710.8" font-family="Times Roman,serif" font-size="13.00">Generated by RailRoady 1.1.1</text>
<text text-anchor="start" x="8" y="-693.8" font-family="Times Roman,serif" font-size="13.00">http://railroady.prestonlee.com</text>
</g>
<!-- Size -->
<g id="node2" class="node"><title>Size</title>
<polyline fill="none" stroke="black" points="411.5,-514 552.5,-514 "/>
<path fill="none" stroke="black" d="M552.5,-514C558.5,-514 564.5,-520 564.5,-526"/>
<polyline fill="none" stroke="black" points="564.5,-526 564.5,-608 "/>
<path fill="none" stroke="black" d="M564.5,-608C564.5,-614 558.5,-620 552.5,-620"/>
<polyline fill="none" stroke="black" points="552.5,-620 411.5,-620 "/>
<path fill="none" stroke="black" d="M411.5,-620C405.5,-620 399.5,-614 399.5,-608"/>
<polyline fill="none" stroke="black" points="399.5,-608 399.5,-526 "/>
<path fill="none" stroke="black" d="M399.5,-526C399.5,-520 405.5,-514 411.5,-514"/>
<text text-anchor="middle" x="482" y="-603.4" font-family="Times Roman,serif" font-size="14.00">Size</text>
<polyline fill="none" stroke="black" points="399.5,-594 564.5,-594 "/>
<text text-anchor="start" x="407.5" y="-577.4" font-family="Times Roman,serif" font-size="14.00">id :integer</text>
<text text-anchor="start" x="407.5" y="-559.4" font-family="Times Roman,serif" font-size="14.00">name :string</text>
<text text-anchor="start" x="407.5" y="-541.4" font-family="Times Roman,serif" font-size="14.00">created_at :datetime</text>
<text text-anchor="start" x="407.5" y="-523.4" font-family="Times Roman,serif" font-size="14.00">updated_at :datetime</text>
</g>
<!-- Product -->
<g id="node4" class="node"><title>Product</title>
<polyline fill="none" stroke="black" points="274.5,-181 471.5,-181 "/>
<path fill="none" stroke="black" d="M471.5,-181C477.5,-181 483.5,-187 483.5,-193"/>
<polyline fill="none" stroke="black" points="483.5,-193 483.5,-437 "/>
<path fill="none" stroke="black" d="M483.5,-437C483.5,-443 477.5,-449 471.5,-449"/>
<polyline fill="none" stroke="black" points="471.5,-449 274.5,-449 "/>
<path fill="none" stroke="black" d="M274.5,-449C268.5,-449 262.5,-443 262.5,-437"/>
<polyline fill="none" stroke="black" points="262.5,-437 262.5,-193 "/>
<path fill="none" stroke="black" d="M262.5,-193C262.5,-187 268.5,-181 274.5,-181"/>
<text text-anchor="middle" x="373" y="-432.4" font-family="Times Roman,serif" font-size="14.00">Product</text>
<polyline fill="none" stroke="black" points="262.5,-423 483.5,-423 "/>
<text text-anchor="start" x="270.5" y="-406.4" font-family="Times Roman,serif" font-size="14.00">id :integer</text>
<text text-anchor="start" x="270.5" y="-388.4" font-family="Times Roman,serif" font-size="14.00">name :string</text>
<text text-anchor="start" x="270.5" y="-370.4" font-family="Times Roman,serif" font-size="14.00">description :text</text>
<text text-anchor="start" x="270.5" y="-352.4" font-family="Times Roman,serif" font-size="14.00">company :string</text>
<text text-anchor="start" x="270.5" y="-334.4" font-family="Times Roman,serif" font-size="14.00">count :integer</text>
<text text-anchor="start" x="270.5" y="-316.4" font-family="Times Roman,serif" font-size="14.00">published :boolean</text>
<text text-anchor="start" x="270.5" y="-298.4" font-family="Times Roman,serif" font-size="14.00">created_at :datetime</text>
<text text-anchor="start" x="270.5" y="-280.4" font-family="Times Roman,serif" font-size="14.00">updated_at :datetime</text>
<text text-anchor="start" x="270.5" y="-262.4" font-family="Times Roman,serif" font-size="14.00">picture_file_name :string</text>
<text text-anchor="start" x="270.5" y="-244.4" font-family="Times Roman,serif" font-size="14.00">picture_content_type :string</text>
<text text-anchor="start" x="270.5" y="-226.4" font-family="Times Roman,serif" font-size="14.00">picture_file_size :integer</text>
<text text-anchor="start" x="270.5" y="-208.4" font-family="Times Roman,serif" font-size="14.00">picture_updated_at :datetime</text>
<text text-anchor="start" x="270.5" y="-190.4" font-family="Times Roman,serif" font-size="14.00">seller_id :integer</text>
</g>
<!-- Size&#45;&gt;Product -->
<g id="edge2" class="edge"><title>Size&#45;&gt;Product</title>
<path fill="none" stroke="#0a9165" d="M455.019,-504.622C448.855,-490.371 442.054,-474.647 435.084,-458.533"/>
<polygon fill="#0a9165" stroke="#0a9165" points="455.047,-504.687 454.887,-515.652 457.032,-509.276 459.017,-513.865 459.017,-513.865 459.017,-513.865 457.032,-509.276 463.147,-512.079 455.047,-504.687 455.047,-504.687"/>
<polygon fill="#0a9165" stroke="#0a9165" points="434.934,-458.187 435.094,-447.222 432.949,-453.598 430.964,-449.009 430.964,-449.009 430.964,-449.009 432.949,-453.598 426.834,-450.795 434.934,-458.187 434.934,-458.187"/>
</g>
<!-- Tag -->
<g id="node3" class="node"><title>Tag</title>
<polyline fill="none" stroke="black" points="593.5,-514 734.5,-514 "/>
<path fill="none" stroke="black" d="M734.5,-514C740.5,-514 746.5,-520 746.5,-526"/>
<polyline fill="none" stroke="black" points="746.5,-526 746.5,-608 "/>
<path fill="none" stroke="black" d="M746.5,-608C746.5,-614 740.5,-620 734.5,-620"/>
<polyline fill="none" stroke="black" points="734.5,-620 593.5,-620 "/>
<path fill="none" stroke="black" d="M593.5,-620C587.5,-620 581.5,-614 581.5,-608"/>
<polyline fill="none" stroke="black" points="581.5,-608 581.5,-526 "/>
<path fill="none" stroke="black" d="M581.5,-526C581.5,-520 587.5,-514 593.5,-514"/>
<text text-anchor="middle" x="664" y="-603.4" font-family="Times Roman,serif" font-size="14.00">Tag</text>
<polyline fill="none" stroke="black" points="581.5,-594 746.5,-594 "/>
<text text-anchor="start" x="589.5" y="-577.4" font-family="Times Roman,serif" font-size="14.00">id :integer</text>
<text text-anchor="start" x="589.5" y="-559.4" font-family="Times Roman,serif" font-size="14.00">name :string</text>
<text text-anchor="start" x="589.5" y="-541.4" font-family="Times Roman,serif" font-size="14.00">created_at :datetime</text>
<text text-anchor="start" x="589.5" y="-523.4" font-family="Times Roman,serif" font-size="14.00">updated_at :datetime</text>
</g>
<!-- Tag&#45;&gt;Product -->
<g id="edge6" class="edge"><title>Tag&#45;&gt;Product</title>
<path fill="none" stroke="#3a695e" d="M596.549,-506.693C588.631,-499.693 580.65,-492.674 573,-486 546.76,-463.108 518.414,-438.688 491.543,-415.679"/>
<polygon fill="#3a695e" stroke="#3a695e" points="596.945,-507.044 601.449,-517.042 600.688,-510.358 604.432,-513.673 604.432,-513.673 604.432,-513.673 600.688,-510.358 607.415,-510.304 596.945,-507.044 596.945,-507.044"/>
<polygon fill="#3a695e" stroke="#3a695e" points="491.23,-415.411 486.558,-405.49 487.431,-412.16 483.632,-408.909 483.632,-408.909 483.632,-408.909 487.431,-412.16 480.707,-412.328 491.23,-415.411 491.23,-415.411"/>
</g>
<!-- Price -->
<g id="node5" class="node"><title>Price</title>
<polyline fill="none" stroke="black" points="109.5,-1 250.5,-1 "/>
<path fill="none" stroke="black" d="M250.5,-1C256.5,-1 262.5,-7 262.5,-13"/>
<polyline fill="none" stroke="black" points="262.5,-13 262.5,-131 "/>
<path fill="none" stroke="black" d="M262.5,-131C262.5,-137 256.5,-143 250.5,-143"/>
<polyline fill="none" stroke="black" points="250.5,-143 109.5,-143 "/>
<path fill="none" stroke="black" d="M109.5,-143C103.5,-143 97.5,-137 97.5,-131"/>
<polyline fill="none" stroke="black" points="97.5,-131 97.5,-13 "/>
<path fill="none" stroke="black" d="M97.5,-13C97.5,-7 103.5,-1 109.5,-1"/>
<text text-anchor="middle" x="180" y="-126.4" font-family="Times Roman,serif" font-size="14.00">Price</text>
<polyline fill="none" stroke="black" points="97.5,-117 262.5,-117 "/>
<text text-anchor="start" x="105.5" y="-100.4" font-family="Times Roman,serif" font-size="14.00">id :integer</text>
<text text-anchor="start" x="105.5" y="-82.4" font-family="Times Roman,serif" font-size="14.00">amount :decimal</text>
<text text-anchor="start" x="105.5" y="-64.4" font-family="Times Roman,serif" font-size="14.00">currency :string</text>
<text text-anchor="start" x="105.5" y="-46.4" font-family="Times Roman,serif" font-size="14.00">product_id :integer</text>
<text text-anchor="start" x="105.5" y="-28.4" font-family="Times Roman,serif" font-size="14.00">created_at :datetime</text>
<text text-anchor="start" x="105.5" y="-10.4" font-family="Times Roman,serif" font-size="14.00">updated_at :datetime</text>
</g>
<!-- Product&#45;&gt;Price -->
<g id="edge12" class="edge"><title>Product&#45;&gt;Price</title>
<path fill="none" stroke="#965b70" d="M261.291,-174.35C254.614,-165.944 248.037,-157.663 241.692,-149.674"/>
<ellipse fill="none" stroke="#965b70" cx="263.851" cy="-177.574" rx="4.00002" ry="4.00002"/>
<ellipse fill="#965b70" stroke="#965b70" cx="238.907" cy="-146.168" rx="4.00002" ry="4.00002"/>
</g>
<!-- Color -->
<g id="node6" class="node"><title>Color</title>
<polyline fill="none" stroke="black" points="393.5,-19 534.5,-19 "/>
<path fill="none" stroke="black" d="M534.5,-19C540.5,-19 546.5,-25 546.5,-31"/>
<polyline fill="none" stroke="black" points="546.5,-31 546.5,-113 "/>
<path fill="none" stroke="black" d="M546.5,-113C546.5,-119 540.5,-125 534.5,-125"/>
<polyline fill="none" stroke="black" points="534.5,-125 393.5,-125 "/>
<path fill="none" stroke="black" d="M393.5,-125C387.5,-125 381.5,-119 381.5,-113"/>
<polyline fill="none" stroke="black" points="381.5,-113 381.5,-31 "/>
<path fill="none" stroke="black" d="M381.5,-31C381.5,-25 387.5,-19 393.5,-19"/>
<text text-anchor="middle" x="464" y="-108.4" font-family="Times Roman,serif" font-size="14.00">Color</text>
<polyline fill="none" stroke="black" points="381.5,-99 546.5,-99 "/>
<text text-anchor="start" x="389.5" y="-82.4" font-family="Times Roman,serif" font-size="14.00">id :integer</text>
<text text-anchor="start" x="389.5" y="-64.4" font-family="Times Roman,serif" font-size="14.00">name :string</text>
<text text-anchor="start" x="389.5" y="-46.4" font-family="Times Roman,serif" font-size="14.00">created_at :datetime</text>
<text text-anchor="start" x="389.5" y="-28.4" font-family="Times Roman,serif" font-size="14.00">updated_at :datetime</text>
</g>
<!-- Product&#45;&gt;Color -->
<g id="edge10" class="edge"><title>Product&#45;&gt;Color</title>
<path fill="none" stroke="#bf06c8" d="M426.895,-171.082C431.651,-158.384 436.279,-146.024 440.563,-134.584"/>
<polygon fill="#bf06c8" stroke="#bf06c8" points="426.798,-171.342 419.077,-179.128 425.044,-176.024 423.291,-180.707 423.291,-180.707 423.291,-180.707 425.044,-176.024 427.505,-182.285 426.798,-171.342 426.798,-171.342"/>
<polygon fill="#bf06c8" stroke="#bf06c8" points="440.569,-134.568 448.29,-126.781 442.323,-129.885 444.076,-125.203 444.076,-125.203 444.076,-125.203 442.323,-129.885 439.862,-123.625 440.569,-134.568 440.569,-134.568"/>
</g>
<!-- Seller -->
<g id="node7" class="node"><title>Seller</title>
<polyline fill="none" stroke="black" points="155.5,-487 370.5,-487 "/>
<path fill="none" stroke="black" d="M370.5,-487C376.5,-487 382.5,-493 382.5,-499"/>
<polyline fill="none" stroke="black" points="382.5,-499 382.5,-635 "/>
<path fill="none" stroke="black" d="M382.5,-635C382.5,-641 376.5,-647 370.5,-647"/>
<polyline fill="none" stroke="black" points="370.5,-647 155.5,-647 "/>
<path fill="none" stroke="black" d="M155.5,-647C149.5,-647 143.5,-641 143.5,-635"/>
<polyline fill="none" stroke="black" points="143.5,-635 143.5,-499 "/>
<path fill="none" stroke="black" d="M143.5,-499C143.5,-493 149.5,-487 155.5,-487"/>
<text text-anchor="middle" x="263" y="-630.4" font-family="Times Roman,serif" font-size="14.00">Seller</text>
<polyline fill="none" stroke="black" points="143.5,-621 382.5,-621 "/>
<text text-anchor="start" x="151.5" y="-604.4" font-family="Times Roman,serif" font-size="14.00">id :integer</text>
<text text-anchor="start" x="151.5" y="-586.4" font-family="Times Roman,serif" font-size="14.00">email :string</text>
<text text-anchor="start" x="151.5" y="-568.4" font-family="Times Roman,serif" font-size="14.00">encrypted_password :string</text>
<text text-anchor="start" x="151.5" y="-550.4" font-family="Times Roman,serif" font-size="14.00">phone :string</text>
<text text-anchor="start" x="151.5" y="-532.4" font-family="Times Roman,serif" font-size="14.00">remember_created_at :datetime</text>
<text text-anchor="start" x="151.5" y="-514.4" font-family="Times Roman,serif" font-size="14.00">created_at :datetime</text>
<text text-anchor="start" x="151.5" y="-496.4" font-family="Times Roman,serif" font-size="14.00">updated_at :datetime</text>
</g>
<!-- Seller&#45;&gt;Product -->
<g id="edge20" class="edge"><title>Seller&#45;&gt;Product</title>
<path fill="none" stroke="#e156b2" d="M301.209,-479.466C304.163,-472.7 307.188,-465.77 310.245,-458.766"/>
<ellipse fill="none" stroke="#e156b2" cx="299.556" cy="-483.253" rx="4.00002" ry="4.00002"/>
<polygon fill="#e156b2" stroke="#e156b2" points="310.43,-458.341 318.555,-450.977 312.431,-453.759 314.431,-449.177 314.431,-449.177 314.431,-449.177 312.431,-453.759 310.307,-447.376 310.43,-458.341 310.43,-458.341"/>
</g>
<!-- ActiveRecord::Base -->
<g id="node9" class="node"><title>ActiveRecord::Base</title>
<ellipse fill="none" stroke="black" cx="372" cy="-731" rx="104.151" ry="18.3848"/>
<text text-anchor="middle" x="372" y="-727.4" font-family="Times Roman,serif" font-size="14.00">ActiveRecord::Base</text>
</g>
<!-- ActiveRecord::Base&#45;&gt;Size -->
<g id="edge4" class="edge"><title>ActiveRecord::Base&#45;&gt;Size</title>
<path fill="none" stroke="black" d="M384.405,-712.506C399.35,-690.223 425.109,-651.82 446.411,-620.06"/>
</g>
<!-- ActiveRecord::Base&#45;&gt;Tag -->
<g id="edge8" class="edge"><title>ActiveRecord::Base&#45;&gt;Tag</title>
<path fill="none" stroke="black" d="M424.278,-714.837C466.266,-700.606 525.803,-677.555 573,-648 585.727,-640.03 598.395,-630.25 610.056,-620.278"/>
</g>
<!-- ActiveRecord::Base&#45;&gt;Product -->
<g id="edge14" class="edge"><title>ActiveRecord::Base&#45;&gt;Product</title>
<path fill="none" stroke="black" d="M333.454,-713.712C311.802,-704.32 284.153,-692.851 259,-684 204.867,-664.951 169.46,-693.888 135,-648 91.7643,-590.427 102.143,-550.066 135,-486 162.107,-433.145 213.991,-392.934 262.413,-364.827"/>
</g>
<!-- ActiveRecord::Base&#45;&gt;Price -->
<g id="edge16" class="edge"><title>ActiveRecord::Base&#45;&gt;Price</title>
<path fill="none" stroke="black" d="M334.671,-713.605C312.931,-703.949 284.801,-692.259 259,-684 190.819,-662.176 146.607,-703.993 102,-648 -15.4255,-500.601 79.9793,-261.732 140.187,-143.285"/>
</g>
<!-- ActiveRecord::Base&#45;&gt;Color -->
<g id="edge18" class="edge"><title>ActiveRecord::Base&#45;&gt;Color</title>
<path fill="none" stroke="black" d="M468.042,-723.691C569.486,-713.74 719.603,-691.89 755,-648 892.328,-477.724 650.901,-232.124 528.584,-125.149"/>
</g>
<!-- ActiveRecord::Base&#45;&gt;Seller -->
<g id="edge22" class="edge"><title>ActiveRecord::Base&#45;&gt;Seller</title>
<path fill="none" stroke="black" d="M359.708,-712.506C348.963,-696.338 332.577,-671.684 316.329,-647.239"/>
</g>
</g>
</svg>
